<svg width="17" height="12" viewBox="0 0 17 12" fill="none" xmlns="http://www.w3.org/2000/svg">
<path d="M16.0266 6C16.0266 6.10022 16.0122 6.19672 15.9836 6.2895C15.955 6.38285 15.8977 6.46532 15.8118 6.53691L11.0655 11.2832C10.9509 11.4121 10.804 11.4765 10.6248 11.4765C10.4461 11.4765 10.2923 11.4121 10.1635 11.2832C10.0489 11.1544 9.99166 11.0003 9.99166 10.821C9.99166 10.6424 10.0489 10.4886 10.1635 10.3597L13.9004 6.64429L0.670853 6.64429C0.484723 6.64429 0.330665 6.5833 0.208678 6.46131C0.0872645 6.3399 0.0265577 6.18613 0.0265577 6C0.0265577 5.81387 0.0872645 5.65981 0.208678 5.53782C0.330665 5.41641 0.484723 5.3557 0.670853 5.3557L13.9004 5.3557L10.1635 1.61879C10.0489 1.50425 9.98794 1.35735 9.98049 1.17809C9.97362 0.999407 10.0346 0.845637 10.1635 0.716777C10.2923 0.587918 10.4461 0.523489 10.6248 0.523489C10.804 0.523489 10.9509 0.587918 11.0655 0.716777L15.8118 5.46309C15.8977 5.53467 15.955 5.61686 15.9836 5.70964C16.0122 5.80299 16.0266 5.89977 16.0266 6Z" fill="#292B2E"/>
</svg>
