<svg width="12" height="12" viewBox="0 0 12 12" fill="none" xmlns="http://www.w3.org/2000/svg">
<path d="M6 6.99213L1.20472 11.7874C1.07874 11.9134 0.91748 11.9802 0.720945 11.9877C0.52378 11.9959 0.354331 11.9291 0.212598 11.7874C0.070866 11.6457 0 11.4803 0 11.2913C0 11.1024 0.070866 10.937 0.212598 10.7953L5.00787 6L0.212598 1.20472C0.0866141 1.07874 0.0198425 0.917165 0.0122835 0.72C0.0040945 0.523465 0.070866 0.354331 0.212598 0.212598C0.354331 0.070866 0.519685 0 0.708661 0C0.897638 0 1.06299 0.070866 1.20472 0.212598L6 5.00787L10.7953 0.212598C10.9213 0.0866141 11.0828 0.0195276 11.28 0.0113387C11.4765 0.00377961 11.6457 0.070866 11.7874 0.212598C11.9291 0.354331 12 0.519685 12 0.708661C12 0.897638 11.9291 1.06299 11.7874 1.20472L6.99213 6L11.7874 10.7953C11.9134 10.9213 11.9802 11.0825 11.9877 11.2791C11.9959 11.4762 11.9291 11.6457 11.7874 11.7874C11.6457 11.9291 11.4803 12 11.2913 12C11.1024 12 10.937 11.9291 10.7953 11.7874L6 6.99213Z" fill="#292B2E"/>
</svg>
